<?xml version="1.0" encoding="UTF-8"?>
<svg xmlns="http://www.w3.org/2000/svg" viewBox="0 0 72 56" width="72" height="56" fill="none">
  <defs>
    <linearGradient id="mic" x1="18" y1="4" x2="18" y2="44">
      <stop offset="0%" stop-color="#C8D4E8"/>
      <stop offset="55%" stop-color="#3B82F6"/>
      <stop offset="100%" stop-color="#2563EB"/>
    </linearGradient>
    <linearGradient id="v" x1="14" y1="14" x2="22" y2="28">
      <stop offset="0%" stop-color="#F0D78C"/>
      <stop offset="100%" stop-color="#D4A853"/>
    </linearGradient>
  </defs>
  <path d="M18 46 L18 52 M12 52 L24 52" stroke="#94A3B8" stroke-width="2" stroke-linecap="round"/>
  <rect x="8" y="4" width="20" height="40" rx="10" fill="url(#mic)" stroke="#C8D4E8" stroke-width="1"/>
  <path d="M12 14 L18 28 L24 14" stroke="url(#v)" stroke-width="3" stroke-linecap="round" stroke-linejoin="round"/>
  <path d="M34 38 C34 34 38 32 42 32 L48 32 L48 50 C44 50 34 48 34 44 Z" fill="#0A1640" stroke="#D4A853" stroke-width="1"/>
  <path d="M48 32 L54 32 C58 32 62 34 62 38 L62 46 C58 48 48 50 48 50 Z" fill="#061028" stroke="#D4A853" stroke-width="1"/>
  <line x1="48" y1="32" x2="48" y2="50" stroke="#D4A853" stroke-width="1.2"/>
</svg>
